<svg width="144" height="18" viewBox="0 0 144 18" fill="none" xmlns="http://www.w3.org/2000/svg">
<path fill-rule="evenodd" clip-rule="evenodd" d="M6.86328 10.0818C6.62127 10.4304 6.30016 10.7141 5.92731 10.909C5.55446 11.1038 5.14092 11.2039 4.72192 11.2007C3.38592 11.2007 2.37934 10.1564 2.37934 8.73913C2.37934 7.43365 3.27592 6.25879 4.66702 6.25879C5.09343 6.2575 5.51422 6.35803 5.89562 6.55234C6.27702 6.74665 6.60843 7.02933 6.86328 7.3777V10.0818ZM9.24246 13.2522V0.0118408H6.86328V4.86053C6.16782 4.30108 5.32587 4.02135 4.35589 4.02135C1.94011 4.02135 6.63472e-05 6.07268 6.63472e-05 8.73998C-0.00594435 9.90099 0.396626 11.0257 1.13475 11.9102C1.55472 12.3925 2.07052 12.7783 2.64796 13.0419C3.22539 13.3056 3.85125 13.4411 4.484 13.4395C5.38939 13.4523 6.26813 13.1273 6.95479 12.5259V13.2532H9.24246V13.2522ZM18.1185 10.0818C17.8764 10.4304 17.5553 10.7141 17.1825 10.909C16.8096 11.1038 16.3961 11.2039 15.9771 11.2007C14.6411 11.2007 13.6345 10.1564 13.6345 8.73913C13.6345 7.43365 14.5311 6.25879 15.9222 6.25879C16.3486 6.2575 16.7694 6.35803 17.1508 6.55234C17.5322 6.74665 17.8636 7.02933 18.1185 7.3777V10.0818ZM20.4979 4.20784H18.2102V4.93513C17.4743 4.33243 16.5555 4.00944 15.6113 4.02154C13.1956 4.02154 11.2555 6.07287 11.2555 8.74017C11.2495 9.90118 11.6521 11.0259 12.3902 11.9104C12.8102 12.3927 13.326 12.7784 13.9034 13.0421C14.4808 13.3058 15.1067 13.4413 15.7395 13.4397C16.6448 13.4524 17.5236 13.1275 18.2102 12.5261V13.2534H20.4979V4.20784ZM25.622 13.2525V7.37817C25.9515 6.94926 26.6835 6.25926 27.6901 6.25926C27.9388 6.25235 28.1861 6.29856 28.4162 6.39491C28.6464 6.49126 28.8541 6.63563 29.0262 6.81872C29.3007 7.13574 29.4654 7.54601 29.4654 8.36654V13.2525H31.8446V8.45978C31.8412 8.12287 31.8167 7.78652 31.7714 7.45276C32.0825 6.98655 32.8878 6.25926 33.9128 6.25926C34.1614 6.25234 34.4088 6.29855 34.6389 6.3949C34.869 6.49125 35.0767 6.63562 35.2488 6.81872C35.5233 7.13574 35.688 7.54601 35.688 8.36654V13.2525H38.0672V8.45978C38.0672 7.11709 37.7378 6.18467 37.1706 5.47593C36.4568 4.58118 35.2855 4.02135 34.0594 4.02135C32.7416 4.02135 31.6252 4.67405 30.9114 5.43864C30.5471 4.99339 30.0908 4.63552 29.5751 4.39054C29.0595 4.14557 28.4971 4.01951 27.9282 4.02135C27.045 4.0094 26.1895 4.3354 25.5307 4.93494V4.20784H23.2425V13.2525H25.6218H25.622ZM43.008 0.0118408H40.6288V13.2525H43.008V0.0118408Z" fill="#1F2A38"/>
<path fill-rule="evenodd" clip-rule="evenodd" d="M52.078 8.34344L50.6452 12.9816H47.7801L49.2129 8.34344H52.078Z" fill="#1F2A38"/>
<path fill-rule="evenodd" clip-rule="evenodd" d="M54.6559 0L53.1866 4.75594H50.3216L51.7911 0.000185097L54.6559 0Z" fill="#577FF1"/>
<path d="M66.2851 9.4064C66.304 9.23706 66.304 9.10534 66.304 9.03008C66.304 6.41466 64.5164 4.42016 62.0515 4.42016C59.549 4.42016 57.7427 6.37702 57.7427 9.03008C57.7427 11.6831 59.7372 13.64 62.315 13.64C64.1213 13.64 65.382 12.8309 66.0405 11.9842L64.8739 10.874C64.3659 11.4385 63.6509 12.0783 62.3338 12.0783C60.7909 12.0783 59.5678 10.8929 59.4737 9.4064H66.2851ZM62.108 5.98189C63.1617 5.98189 64.1777 6.77216 64.4412 7.90112H59.6243C59.9253 6.75334 60.9602 5.98189 62.108 5.98189Z" fill="#577FF1"/>
<path d="M70.2915 4.60832H68.5604V13.4518H70.3479V7.37427C70.8748 6.73453 71.7215 6.1136 72.8881 6.1136C73.6219 6.1136 74.2993 6.45229 74.7132 6.97914C75.0331 7.37427 75.2401 7.90112 75.2401 9.03008V13.4518H77.0276V9.12416C77.0276 7.60006 76.7265 6.6969 76.1621 5.98189C75.4094 5.02227 74.2428 4.42016 72.9445 4.42016C71.665 4.42016 70.7619 5.00346 70.2915 5.45504V4.60832Z" fill="#577FF1"/>
<path d="M84.8639 11.8337C84.6005 11.9089 84.1489 11.9466 83.8855 11.9466C83.4151 11.9466 82.907 11.7772 82.6624 11.4762C82.4366 11.2127 82.399 10.8176 82.399 10.3472V6.20768H85.2214V4.60832H82.399V2.16224H80.6115V4.60832H78.3535V6.20768H80.6115V10.2531C80.6115 11.2127 80.7996 12.0218 81.3265 12.6051C81.891 13.2449 82.7189 13.64 83.829 13.64C84.337 13.64 84.8827 13.5647 85.2214 13.4518L84.8639 11.8337Z" fill="#577FF1"/>
<path d="M94.992 9.4064C95.0108 9.23706 95.0108 9.10534 95.0108 9.03008C95.0108 6.41466 93.2233 4.42016 90.7584 4.42016C88.2559 4.42016 86.4496 6.37702 86.4496 9.03008C86.4496 11.6831 88.4441 13.64 91.0219 13.64C92.8282 13.64 94.0889 12.8309 94.7474 11.9842L93.5808 10.874C93.0728 11.4385 92.3578 12.0783 91.0407 12.0783C89.4978 12.0783 88.2747 10.8929 88.1806 9.4064H94.992ZM90.8149 5.98189C91.8686 5.98189 92.8846 6.77216 93.1481 7.90112H88.3312C88.6322 6.75334 89.6671 5.98189 90.8149 5.98189Z" fill="#577FF1"/>
<path d="M102.348 4.47661C102.141 4.43898 101.84 4.42016 101.651 4.42016C100.353 4.42016 99.4311 5.02227 98.9984 5.62438V4.60832H97.2673V13.4518H99.0548V7.60006C99.544 6.75334 100.522 6.1136 101.444 6.1136C101.727 6.1136 101.934 6.13242 102.141 6.18886L102.348 4.47661Z" fill="#577FF1"/>
<path d="M106.106 12.6804C106.821 13.3013 107.725 13.64 108.778 13.64C109.569 13.64 110.396 13.4142 110.999 13.0567C112.335 12.2664 113.256 10.7988 113.256 9.03008C113.256 7.26138 112.316 5.77491 110.98 4.98464C110.378 4.62714 109.644 4.42016 108.816 4.42016C107.819 4.42016 106.859 4.72122 106.05 5.41741V4.60832H104.319V17.9677H106.106V12.6804ZM106.106 7.37427C106.652 6.65926 107.555 6.1136 108.628 6.1136C110.34 6.1136 111.469 7.48717 111.469 9.03008C111.469 10.6106 110.246 11.9466 108.534 11.9466C107.631 11.9466 106.709 11.495 106.106 10.6859V7.37427Z" fill="#577FF1"/>
<path d="M120.604 4.47661C120.397 4.43898 120.096 4.42016 119.907 4.42016C118.609 4.42016 117.687 5.02227 117.254 5.62438V4.60832H115.523V13.4518H117.311V7.60006C117.8 6.75334 118.778 6.1136 119.7 6.1136C119.983 6.1136 120.19 6.13242 120.397 6.18886L120.604 4.47661Z" fill="#577FF1"/>
<path d="M122.575 13.4518H124.362V4.60832H122.575V13.4518ZM122.293 1.46605C122.293 2.12461 122.801 2.63264 123.459 2.63264C124.118 2.63264 124.645 2.12461 124.645 1.46605C124.645 0.807488 124.118 0.28064 123.459 0.28064C122.801 0.28064 122.293 0.807488 122.293 1.46605Z" fill="#577FF1"/>
<path d="M126.52 12.417C127.498 13.2072 128.683 13.64 130.095 13.64C131.826 13.64 133.387 12.6051 133.387 10.9305C133.387 9.10534 131.562 8.48442 130.17 8.12691C129.286 7.90112 128.589 7.69414 128.589 7.09203C128.589 6.39584 129.323 5.98189 130.189 5.98189C130.904 5.98189 131.543 6.26413 132.089 6.67808L133.011 5.39859C132.315 4.83411 131.374 4.42016 130.076 4.42016C128.495 4.42016 126.802 5.2857 126.802 7.18611C126.802 8.42797 127.761 9.10534 128.834 9.46285C130.132 9.89562 131.6 9.95206 131.6 10.9681C131.6 11.6643 130.828 12.0783 130.057 12.0783C129.173 12.0783 128.269 11.7396 127.442 11.0998L126.52 12.417Z" fill="#577FF1"/>
<path d="M143.531 9.4064C143.55 9.23706 143.55 9.10534 143.55 9.03008C143.55 6.41466 141.762 4.42016 139.297 4.42016C136.795 4.42016 134.988 6.37702 134.988 9.03008C134.988 11.6831 136.983 13.64 139.561 13.64C141.367 13.64 142.628 12.8309 143.286 11.9842L142.119 10.874C141.611 11.4385 140.896 12.0783 139.579 12.0783C138.036 12.0783 136.813 10.8929 136.719 9.4064H143.531ZM139.354 5.98189C140.407 5.98189 141.423 6.77216 141.687 7.90112H136.87C137.171 6.75334 138.206 5.98189 139.354 5.98189Z" fill="#577FF1"/>
</svg>
